<mxfile host="app.diagrams.net" modified="2023-10-10T14:42:08.680Z" agent="Mozilla/5.0 (X11; Linux x86_64; rv:102.0) Gecko/20100101 Firefox/102.0" version="21.8.2" etag="mW3jNiYIWoQxS7JVWSUh" type="github">
  <diagram name="PÃ¡gina-1" id="7BK64HZag-9Ndyj8tRn7">
    <mxGraphModel>
      <root>
        <mxCell id="0" />
        <mxCell id="1" parent="0" />
      </root>
    </mxGraphModel>
  </diagram>
</mxfile>
